ffmpeg version 2022-04-14-git-ea84eb2db1-essentials_build-www.gyan.dev Copyright (c) 2000-2022 the FFmpeg developers
  built with gcc 11.2.0 (Rev10, Built by MSYS2 project)
  configuration: --enable-gpl --enable-version3 --enable-static --disable-w32threads --disable-autodetect --enable-fontconfig --enable-iconv --enable-gnutls --enable-libxml2 --enable-gmp --enable-bzlib --enable-lzma --enable-zlib --enable-libsrt --enable-libssh --enable-libzmq --enable-avisynth --enable-sdl2 --enable-libwebp --enable-libx264 --enable-libx265 --enable-libxvid --enable-libaom --enable-libopenjpeg --enable-libvpx --enable-mediafoundation --enable-libass --enable-libfreetype --enable-libfribidi --enable-libvidstab --enable-libvmaf --enable-libzimg --enable-amf --enable-cuda-llvm --enable-cuvid --enable-ffnvcodec --enable-nvdec --enable-nvenc --enable-d3d11va --enable-dxva2 --enable-libmfx --enable-libgme --enable-libopenmpt --enable-libopencore-amrwb --enable-libmp3lame --enable-libtheora --enable-libvo-amrwbenc --enable-libgsm --enable-libopencore-amrnb --enable-libopus --enable-libspeex --enable-libvorbis --enable-librubberband
  libavutil      57. 24.101 / 57. 24.101
  libavcodec     59. 26.100 / 59. 26.100
  libavformat    59. 22.100 / 59. 22.100
  libavdevice    59.  6.100 / 59.  6.100
  libavfilter     8. 31.100 /  8. 31.100
  libswscale      6.  6.100 /  6.  6.100
  libswresample   4.  6.100 /  4.  6.100
  libpostproc    56.  5.100 / 56.  5.100
Splitting the commandline.
Reading option '-v' ... matched as option 'v' (set logging level) with argument 'debug'.
Reading option '-nostdin' ... matched as option 'stdin' (enable or disable interaction on standard input) with argument 0.
Reading option '-progress' ... matched as option 'progress' (write program-readable progress information) with argument 'C:/Users/pedro/AppData/Local/Temp/KritaFFmpegProgress.pdmvrT'.
Reading option '-r' ... matched as option 'r' (set frame rate (Hz value, fraction or abbreviation)) with argument '14'.
Reading option '-start_number' ... matched as AVOption 'start_number' with argument '86'.
Reading option '-i' ... matched as input url with argument 'C:/Users/pedro/DEV/jump-tales/characters/murasaki/gifs/frame%04d.png'.
Reading option '-i' ... matched as input url with argument 'C:/Users/pedro/DEV/jump-tales/characters/murasaki/gifs/palette.png'.
Reading option '-lavfi' ... matched as option 'lavfi' (create a complex filtergraph) with argument '[0:v][1:v] paletteuse'.
Reading option '-y' ... matched as option 'y' (overwrite output files) with argument '1'.
Reading option 'C:/Users/pedro/DEV/jump-tales/characters/murasaki/gifs/murasaki_correndo1.gif' ... matched as output url.
Finished splitting the commandline.
Parsing a group of options: global .
Applying option v (set logging level) with argument debug.
Applying option nostdin (enable or disable interaction on standard input) with argument 0.
Applying option progress (write program-readable progress information) with argument C:/Users/pedro/AppData/Local/Temp/KritaFFmpegProgress.pdmvrT.
[file @ 000002ee2279ca00] Setting default whitelist 'file,crypto,data'
Applying option lavfi (create a complex filtergraph) with argument [0:v][1:v] paletteuse.
Applying option y (overwrite output files) with argument 1.
Successfully parsed a group of options.
Parsing a group of options: input url C:/Users/pedro/DEV/jump-tales/characters/murasaki/gifs/frame%04d.png.
Applying option r (set frame rate (Hz value, fraction or abbreviation)) with argument 14.
Successfully parsed a group of options.
Opening an input file: C:/Users/pedro/DEV/jump-tales/characters/murasaki/gifs/frame%04d.png.
[image2 @ 000002ee227dd040] Opening 'C:/Users/pedro/DEV/jump-tales/characters/murasaki/gifs/frame0086.png' for reading
[file @ 000002ee227e2c80] Setting default whitelist 'file,crypto,data'
[AVIOContext @ 000002ee227eae40] Statistics: 11026 bytes read, 0 seeks
[image2 @ 000002ee227dd040] Opening 'C:/Users/pedro/DEV/jump-tales/characters/murasaki/gifs/frame0087.png' for reading
[file @ 000002ee227edcc0] Setting default whitelist 'file,crypto,data'
[AVIOContext @ 000002ee227eddc0] Statistics: 11087 bytes read, 0 seeks
[image2 @ 000002ee227dd040] Opening 'C:/Users/pedro/DEV/jump-tales/characters/murasaki/gifs/frame0088.png' for reading
[file @ 000002ee227edd80] Setting default whitelist 'file,crypto,data'
[AVIOContext @ 000002ee22800c40] Statistics: 11036 bytes read, 0 seeks
[image2 @ 000002ee227dd040] Opening 'C:/Users/pedro/DEV/jump-tales/characters/murasaki/gifs/frame0089.png' for reading
[file @ 000002ee22800c40] Setting default whitelist 'file,crypto,data'
[AVIOContext @ 000002ee22803940] Statistics: 10987 bytes read, 0 seeks
[image2 @ 000002ee227dd040] Opening 'C:/Users/pedro/DEV/jump-tales/characters/murasaki/gifs/frame0090.png' for reading
[file @ 000002ee22803940] Setting default whitelist 'file,crypto,data'
[AVIOContext @ 000002ee227e9600] Statistics: 11008 bytes read, 0 seeks
[image2 @ 000002ee227dd040] Opening 'C:/Users/pedro/DEV/jump-tales/characters/murasaki/gifs/frame0091.png' for reading
[file @ 000002ee227e9600] Setting default whitelist 'file,crypto,data'
[AVIOContext @ 000002ee227e9700] Statistics: 10758 bytes read, 0 seeks
[image2 @ 000002ee227dd040] Opening 'C:/Users/pedro/DEV/jump-tales/characters/murasaki/gifs/frame0092.png' for reading
[file @ 000002ee227e96c0] Setting default whitelist 'file,crypto,data'
[AVIOContext @ 000002ee227e97c0] Statistics: 10684 bytes read, 0 seeks
[image2 @ 000002ee227dd040] Opening 'C:/Users/pedro/DEV/jump-tales/characters/murasaki/gifs/frame0093.png' for reading
[file @ 000002ee227e9780] Setting default whitelist 'file,crypto,data'
[AVIOContext @ 000002ee227ea1c0] Statistics: 10886 bytes read, 0 seeks
[image2 @ 000002ee227dd040] Opening 'C:/Users/pedro/DEV/jump-tales/characters/murasaki/gifs/frame0094.png' for reading
[file @ 000002ee227e9780] Setting default whitelist 'file,crypto,data'
[AVIOContext @ 000002ee227ea1c0] Statistics: 10803 bytes read, 0 seeks
[image2 @ 000002ee227dd040] Opening 'C:/Users/pedro/DEV/jump-tales/characters/murasaki/gifs/frame0095.png' for reading
[file @ 000002ee227e9780] Setting default whitelist 'file,crypto,data'
[AVIOContext @ 000002ee227ea1c0] Statistics: 10867 bytes read, 0 seeks
Input #0, image2, from 'C:/Users/pedro/DEV/jump-tales/characters/murasaki/gifs/frame%04d.png':
  Duration: 00:00:00.40, start: 0.000000, bitrate: N/A
  Stream #0:0, 10, 1/25: Video: png, 1 reference frame, rgba(pc), 650x516 [SAR 3779:3779 DAR 325:258], 0/1, 25 fps, 25 tbr, 25 tbn
Successfully opened the file.
Parsing a group of options: input url C:/Users/pedro/DEV/jump-tales/characters/murasaki/gifs/palette.png.
Successfully parsed a group of options.
Opening an input file: C:/Users/pedro/DEV/jump-tales/characters/murasaki/gifs/palette.png.
[NULL @ 000002ee228177c0] Opening 'C:/Users/pedro/DEV/jump-tales/characters/murasaki/gifs/palette.png' for reading
[file @ 000002ee227dcf40] Setting default whitelist 'file,crypto,data'
[png_pipe @ 000002ee228177c0] Format png_pipe probed with size=2048 and score=99
[png_pipe @ 000002ee228177c0] Before avformat_find_stream_info() pos: 0 bytes read:565 seeks:0 nb_streams:1
[png_pipe @ 000002ee228177c0] After avformat_find_stream_info() pos: 565 bytes read:565 seeks:0 frames:1
Input #1, png_pipe, from 'C:/Users/pedro/DEV/jump-tales/characters/murasaki/gifs/palette.png':
  Duration: N/A, bitrate: N/A
  Stream #1:0, 1, 1/25: Video: png, 1 reference frame, rgba(pc), 16x16 [SAR 1:1 DAR 1:1], 0/1, 25 fps, 25 tbr, 25 tbn
Successfully opened the file.
Parsing a group of options: output url C:/Users/pedro/DEV/jump-tales/characters/murasaki/gifs/murasaki_correndo1.gif.
Successfully parsed a group of options.
Opening an output file: C:/Users/pedro/DEV/jump-tales/characters/murasaki/gifs/murasaki_correndo1.gif.
[file @ 000002ee227e90c0] Setting default whitelist 'file,crypto,data'
Successfully opened the file.
detected 4 logical cores
Stream mapping:
  Stream #0:0 (png) -> paletteuse
  Stream #1:0 (png) -> paletteuse
  paletteuse:default -> Stream #0:0 (gif)
cur_dts is invalid st:0 (0) [init:0 i_done:0 finish:0] (this is harmless if it occurs once at the start per stream)
    Last message repeated 2 times
[image2 @ 000002ee227dd040] Thread message queue blocking; consider raising the thread_queue_size option (current value: 8)
cur_dts is invalid st:0 (0) [init:0 i_done:0 finish:0] (this is harmless if it occurs once at the start per stream)
    Last message repeated 5 times
[graph 0 input from stream 0:0 @ 000002ee22cbe900] Setting 'video_size' to value '650x516'
[graph 0 input from stream 0:0 @ 000002ee22cbe900] Setting 'pix_fmt' to value '26'
[graph 0 input from stream 0:0 @ 000002ee22cbe900] Setting 'time_base' to value '1/14'
[graph 0 input from stream 0:0 @ 000002ee22cbe900] Setting 'pixel_aspect' to value '3779/3779'
[graph 0 input from stream 0:0 @ 000002ee22cbe900] Setting 'frame_rate' to value '14/1'
[graph 0 input from stream 0:0 @ 000002ee22cbe900] w:650 h:516 pixfmt:rgba tb:1/14 fr:14/1 sar:3779/3779
[graph 0 input from stream 1:0 @ 000002ee22cbfcc0] Setting 'video_size' to value '16x16'
[graph 0 input from stream 1:0 @ 000002ee22cbfcc0] Setting 'pix_fmt' to value '26'
[graph 0 input from stream 1:0 @ 000002ee22cbfcc0] Setting 'time_base' to value '1/25'
[graph 0 input from stream 1:0 @ 000002ee22cbfcc0] Setting 'pixel_aspect' to value '1/1'
[graph 0 input from stream 1:0 @ 000002ee22cbfcc0] Setting 'frame_rate' to value '25/1'
[graph 0 input from stream 1:0 @ 000002ee22cbfcc0] w:16 h:16 pixfmt:rgba tb:1/25 fr:25/1 sar:1/1
[format @ 000002ee22cc0200] Setting 'pix_fmts' to value 'rgb8|bgr8|rgb4_byte|bgr4_byte|gray|pal8'
[auto_scale_0 @ 000002ee22cc0b80] w:iw h:ih flags:'' interl:0
[Parsed_paletteuse_0 @ 000002ee21158c80] auto-inserting filter 'auto_scale_0' between the filter 'graph 0 input from stream 0:0' and the filter 'Parsed_paletteuse_0'
[auto_scale_1 @ 000002ee22cc1e80] w:iw h:ih flags:'' interl:0
[Parsed_paletteuse_0 @ 000002ee21158c80] auto-inserting filter 'auto_scale_1' between the filter 'graph 0 input from stream 1:0' and the filter 'Parsed_paletteuse_0'
[AVFilterGraph @ 000002ee227e3380] query_formats: 5 queried, 4 merged, 2 already done, 0 delayed
[swscaler @ 000002ee22cc3600] [swscaler @ 000002ee22cd15c0] Forcing full internal H chroma due to input having non subsampled chroma
[swscaler @ 000002ee22cc3600] [swscaler @ 000002ee22ceeb40] Forcing full internal H chroma due to input having non subsampled chroma
[swscaler @ 000002ee22cc3600] [swscaler @ 000002ee22d0e000] Forcing full internal H chroma due to input having non subsampled chroma
[swscaler @ 000002ee22cc3600] [swscaler @ 000002ee22d2be40] Forcing full internal H chroma due to input having non subsampled chroma
[swscaler @ 000002ee22cc3600] [swscaler @ 000002ee22d45fc0] Forcing full internal H chroma due to input having non subsampled chroma
[auto_scale_0 @ 000002ee22cc0b80] w:650 h:516 fmt:rgba sar:3779/3779 -> w:650 h:516 fmt:bgra sar:1/1 flags:0x0
[swscaler @ 000002ee22d6be00] [swscaler @ 000002ee22d79e00] Forcing full internal H chroma due to input having non subsampled chroma
[swscaler @ 000002ee22d6be00] [swscaler @ 000002ee22d8de00] Forcing full internal H chroma due to input having non subsampled chroma
[swscaler @ 000002ee22d6be00] [swscaler @ 000002ee22da0e40] Forcing full internal H chroma due to input having non subsampled chroma
[swscaler @ 000002ee22d6be00] [swscaler @ 000002ee22db3e40] Forcing full internal H chroma due to input having non subsampled chroma
[swscaler @ 000002ee22d6be00] [swscaler @ 000002ee22dc6e80] Forcing full internal H chroma due to input having non subsampled chroma
[auto_scale_1 @ 000002ee22cc1e80] w:16 h:16 fmt:rgba sar:1/1 -> w:16 h:16 fmt:bgra sar:1/1 flags:0x0
[Parsed_paletteuse_0 @ 000002ee21158c80] [framesync @ 000002ee23559088] Selected 1/350 time base
[Parsed_paletteuse_0 @ 000002ee21158c80] [framesync @ 000002ee23559088] Sync level 2
[swscaler @ 000002ee22cc3600] [swscaler @ 000002ee22d42d80] Forcing full internal H chroma due to input having non subsampled chroma
[swscaler @ 000002ee22cc3600] [swscaler @ 000002ee22d27880] Forcing full internal H chroma due to input having non subsampled chroma
[swscaler @ 000002ee22cc3600] [swscaler @ 000002ee22cd15c0] Forcing full internal H chroma due to input having non subsampled chroma
[swscaler @ 000002ee22cc3600] [swscaler @ 000002ee22ce7fc0] Forcing full internal H chroma due to input having non subsampled chroma
[swscaler @ 000002ee22cc3600] [swscaler @ 000002ee22d14a00] Forcing full internal H chroma due to input having non subsampled chroma
[auto_scale_0 @ 000002ee22cc0b80] w:650 h:516 fmt:rgba sar:3779/3779 -> w:650 h:516 fmt:bgra sar:1/1 flags:0x0
[swscaler @ 000002ee22cc3600] [swscaler @ 000002ee22d14a00] Forcing full internal H chroma due to input having non subsampled chroma
[swscaler @ 000002ee22cc3600] [swscaler @ 000002ee22d42d80] Forcing full internal H chroma due to input having non subsampled chroma
[swscaler @ 000002ee22cc3600] [swscaler @ 000002ee22d25380] Forcing full internal H chroma due to input having non subsampled chroma
[swscaler @ 000002ee22cc3600] [swscaler @ 000002ee22cd2a80] Forcing full internal H chroma due to input having non subsampled chroma
[swscaler @ 000002ee22cc3600] [swscaler @ 000002ee22cec100] Forcing full internal H chroma due to input having non subsampled chroma
[auto_scale_0 @ 000002ee22cc0b80] w:650 h:516 fmt:rgba sar:3779/3779 -> w:650 h:516 fmt:bgra sar:1/1 flags:0x0
[swscaler @ 000002ee22cc3600] [swscaler @ 000002ee22dddec0] Forcing full internal H chroma due to input having non subsampled chroma
[swscaler @ 000002ee22cc3600] [swscaler @ 000002ee22d42d80] Forcing full internal H chroma due to input having non subsampled chroma
[swscaler @ 000002ee22cc3600] [swscaler @ 000002ee22d24f00] Forcing full internal H chroma due to input having non subsampled chroma
[swscaler @ 000002ee22cc3600] [swscaler @ 000002ee22cd15c0] Forcing full internal H chroma due to input having non subsampled chroma
[swscaler @ 000002ee22cc3600] [swscaler @ 000002ee22ce4c00] Forcing full internal H chroma due to input having non subsampled chroma
[auto_scale_0 @ 000002ee22cc0b80] w:650 h:516 fmt:rgba sar:3779/3779 -> w:650 h:516 fmt:bgra sar:1/1 flags:0x0
[swscaler @ 000002ee22d6be00] [swscaler @ 000002ee22d79e00] Forcing full internal H chroma due to input having non subsampled chroma
[swscaler @ 000002ee22d6be00] [swscaler @ 000002ee22d8de00] Forcing full internal H chroma due to input having non subsampled chroma
[swscaler @ 000002ee22d6be00] [swscaler @ 000002ee22da0e40] Forcing full internal H chroma due to input having non subsampled chroma
[swscaler @ 000002ee22d6be00] [swscaler @ 000002ee22db3e40] Forcing full internal H chroma due to input having non subsampled chroma
[swscaler @ 000002ee22d6be00] [swscaler @ 000002ee22dc6e80] Forcing full internal H chroma due to input having non subsampled chroma
[auto_scale_1 @ 000002ee22cc1e80] w:16 h:16 fmt:rgba sar:1/1 -> w:16 h:16 fmt:bgra sar:1/1 flags:0x0
[swscaler @ 000002ee22d6be00] [swscaler @ 000002ee22d79e00] Forcing full internal H chroma due to input having non subsampled chroma
[swscaler @ 000002ee22d6be00] [swscaler @ 000002ee22d8de00] Forcing full internal H chroma due to input having non subsampled chroma
[swscaler @ 000002ee22d6be00] [swscaler @ 000002ee22da0e40] Forcing full internal H chroma due to input having non subsampled chroma
[swscaler @ 000002ee22d6be00] [swscaler @ 000002ee22db3e40] Forcing full internal H chroma due to input having non subsampled chroma
[swscaler @ 000002ee22d6be00] [swscaler @ 000002ee22dc6e80] Forcing full internal H chroma due to input having non subsampled chroma
[auto_scale_1 @ 000002ee22cc1e80] w:16 h:16 fmt:rgba sar:1/1 -> w:16 h:16 fmt:bgra sar:1/1 flags:0x0
[swscaler @ 000002ee22d6be00] [swscaler @ 000002ee22d79e00] Forcing full internal H chroma due to input having non subsampled chroma
[swscaler @ 000002ee22d6be00] [swscaler @ 000002ee22d8de00] Forcing full internal H chroma due to input having non subsampled chroma
[swscaler @ 000002ee22d6be00] [swscaler @ 000002ee22da0e40] Forcing full internal H chroma due to input having non subsampled chroma
[swscaler @ 000002ee22d6be00] [swscaler @ 000002ee22db3e40] Forcing full internal H chroma due to input having non subsampled chroma
[swscaler @ 000002ee22d6be00] [swscaler @ 000002ee22dc6e80] Forcing full internal H chroma due to input having non subsampled chroma
[auto_scale_1 @ 000002ee22cc1e80] w:16 h:16 fmt:rgba sar:1/1 -> w:16 h:16 fmt:bgra sar:1/1 flags:0x0
Output #0, gif, to 'C:/Users/pedro/DEV/jump-tales/characters/murasaki/gifs/murasaki_correndo1.gif':
  Metadata:
    encoder         : Lavf59.22.100
  Stream #0:0, 0, 1/100: Video: gif, 1 reference frame, pal8(pc, gbr/unknown/unknown, progressive), 650x516 (0x0) [SAR 1:1 DAR 325:258], 0/1, q=2-31, 200 kb/s, 14 fps, 100 tbn
    Metadata:
      encoder         : Lavc59.26.100 gif
Clipping frame in rate conversion by 0.000008
frame=    1 fps=0.0 q=-0.0 size=       0kB time=00:00:00.01 bitrate=   0.0kbits/s speed=0.603x    [gif @ 000002ee227e83c0] 186x210 image at pos (211;306) [area:650x516]
[gif @ 000002ee227e83c0] 198x216 image at pos (199;300) [area:650x516]
[gif @ 000002ee227e83c0] 186x192 image at pos (199;306) [area:650x516]
[gif @ 000002ee227e83c0] 174x216 image at pos (211;300) [area:650x516]
[gif @ 000002ee227e83c0] 336x402 image at pos (97;114) [area:650x516]
[gif @ 000002ee227e83c0] 174x228 image at pos (217;288) [area:650x516]
[gif @ 000002ee227e83c0] 186x228 image at pos (199;288) [area:650x516]
[gif @ 000002ee227e83c0] 186x204 image at pos (199;300) [area:650x516]
[gif @ 000002ee227e83c0] 180x216 image at pos (211;300) [area:650x516]
[Parsed_paletteuse_0 @ 000002ee21158c80] [framesync @ 000002ee23559088] Sync level 0
[out_0_0 @ 000002ee22cc0040] EOF on sink link out_0_0:default.
No more output streams to write to, finishing.
frame=   10 fps=0.0 q=-0.0 Lsize=      29kB time=00:00:00.65 bitrate= 367.6kbits/s speed=4.38x    
[AVIOContext @ 000002ee227dcc00] Statistics: 379 bytes written, 0 seeks, 2 writeouts
video:29kB audio:0kB subtitle:0kB other streams:0kB global headers:0kB muxing overhead: 0.067002%
Input file #0 (C:/Users/pedro/DEV/jump-tales/characters/murasaki/gifs/frame%04d.png):
  Input stream #0:0 (video): 10 packets read (109142 bytes); 10 frames decoded; 
  Total: 10 packets (109142 bytes) demuxed
Input file #1 (C:/Users/pedro/DEV/jump-tales/characters/murasaki/gifs/palette.png):
  Input stream #1:0 (video): 1 packets read (565 bytes); 1 frames decoded; 
  Total: 1 packets (565 bytes) demuxed
Output file #0 (C:/Users/pedro/DEV/jump-tales/characters/murasaki/gifs/murasaki_correndo1.gif):
  Output stream #0:0 (video): 10 frames encoded; 10 packets muxed (29850 bytes); 
  Total: 10 packets (29850 bytes) muxed
[AVIOContext @ 000002ee227e91c0] Statistics: 29870 bytes written, 0 seeks, 1 writeouts
11 frames successfully decoded, 0 decoding errors
[AVIOContext @ 000002ee2279c6c0] Statistics: 565 bytes read, 0 seeks
